HIERARCHY
ROOT Hips
{
  OFFSET -69.4423 88.0299 51.6846
  CHANNELS 6 Xposition Yposition Zposition Zrotation Xrotation Yrotation
  JOINT Spine
  {
    OFFSET 12.0259 -0.162853 1.93176e-005
    CHANNELS 3 Zrotation Xrotation Yrotation
    JOINT Spine1
    {
      OFFSET 15.3169 -0.0121909 0
      CHANNELS 3 Zrotation Xrotation Yrotation
      JOINT Spine2
      {
        OFFSET 15.3176 -0.0121922 0
        CHANNELS 3 Zrotation Xrotation Yrotation
        JOINT Neck
        {
          OFFSET 19.9142 1.56236 0
          CHANNELS 3 Zrotation Xrotation Yrotation
          JOINT Head
          {
            OFFSET 6.92646 0 0
            CHANNELS 3 Zrotation Xrotation Yrotation
            End Site
            {
              OFFSET 20.7666 0 0
            }
          }
          JOINT LeftShoulder
          {
            OFFSET -4.94072 -1.14703 8.14416
            CHANNELS 3 Zrotation Xrotation Yrotation
            JOINT LeftArm
            {
              OFFSET 14.108 0 -2.74767e-005
              CHANNELS 3 Zrotation Xrotation Yrotation
              JOINT LeftForeArm
              {
                OFFSET 28.5802 -0.0783412 -0.0284884
                CHANNELS 3 Zrotation Xrotation Yrotation
                JOINT LeftHand
                {
                  OFFSET 27.092 0 0
                  CHANNELS 3 Zrotation Xrotation Yrotation
                  End Site
                  {
                    OFFSET 9.55928 -0.186424 0.145352
                  }
                }
              }
            }
          }
          JOINT RightShoulder
          {
            OFFSET -7.15748 -1.33027 -6.24935
            CHANNELS 3 Zrotation Xrotation Yrotation
            JOINT RightArm
            {
              OFFSET 14.108 0 1.82997e-005
              CHANNELS 3 Zrotation Xrotation Yrotation
              JOINT RightForeArm
              {
                OFFSET 28.5802 -0.0707221 2.30684e-005
                CHANNELS 3 Zrotation Xrotation Yrotation
                JOINT RightHand
                {
                  OFFSET 27.092 0 -1.30073e-005
                  CHANNELS 3 Zrotation Xrotation Yrotation
                  End Site
                  {
                    OFFSET 9.55929 -0.186417 -0.145354
                  }
                }
              }
            }
          }
        }
      }
    }
  }
  JOINT LeftUpLeg
  {
    OFFSET 0.00499725 -0.534999 8.837
    CHANNELS 3 Zrotation Xrotation Yrotation
    JOINT LeftLeg
    {
      OFFSET 39.9035 -0.00124594 0.000252775
      CHANNELS 3 Zrotation Xrotation Yrotation
      JOINT LeftFoot
      {
        OFFSET 39.6689 0 0
        CHANNELS 3 Zrotation Xrotation Yrotation
        JOINT LeftToe
        {
          OFFSET 10.1624 13.6296 0
          CHANNELS 3 Zrotation Xrotation Yrotation
          End Site
          {
            OFFSET 8.38147 0 0
          }
        }
      }
    }
  }
  JOINT RightUpLeg
  {
    OFFSET 0.00499725 -0.535 -8.837
    CHANNELS 3 Zrotation Xrotation Yrotation
    JOINT RightLeg
    {
      OFFSET 39.9036 -0.000268477 0.000106433
      CHANNELS 3 Zrotation Xrotation Yrotation
      JOINT RightFoot
      {
        OFFSET 39.6689 1.17892e-005 0
        CHANNELS 3 Zrotation Xrotation Yrotation
        JOINT RightToe
        {
          OFFSET 10.1624 13.6296 0
          CHANNELS 3 Zrotation Xrotation Yrotation
          End Site
          {
            OFFSET 8.38147 0 0
          }
        }
      }
    }
  }
}
MOTION
Frames:	8
Frame Time:	0.0333333
33.6132 89.4569 41.9821 -86.1835 50.4029 175.694 1.26258 0.534438 0.361482 2.52194 1.07716 0.711298 2.52193 1.07718 0.711288 -7.93765 -9.14819 -14.4819 51.7225 -6.14352 24.7257 -175.92 -9.84696 -96.9853 -17.6285 3.58377 84.0102 -23.4214 2.32971 -14.962 9.65967 -82.5938 11.9474 -175.94 -12.4365 71.3688 -13.0663 -4.21163 -79.8923 -30.159 -4.34606 17.9085 117.189 89.2191 -117.215 -11.0478 -4.57743 -177.714 -33.1204 0.958186 -0.934056 6.17431 20.0852 1.62819 90 -1.43125e-014 1.59028e-015 -13.122 0.707764 178.318 -32.3364 -0.571791 0.555743 -0.219008 -4.44976 -1.7175 90 7.95139e-015 3.18055e-015 
33.0501 89.2139 43.0043 -85.5946 52.4401 174.856 1.25845 0.474712 0.546331 2.51245 0.961765 1.08231 2.51244 0.961767 1.0823 -7.59619 -9.18707 -14.543 51.983 -6.32683 24.4991 -176.284 -9.7934 -97.1385 -20.0861 3.63849 84.8866 -23.5213 2.34775 -15.0315 13.6384 -83.9505 16.1512 -176.278 -12.3712 71.1963 -12.4348 -3.96421 -78.6696 -29.835 -4.2547 17.7295 91.0594 89.3287 -91.0934 -11.0612 -4.80542 -179.711 -31.3281 0.973053 -1.01485 7.38629 19.1092 1.30389 90 -1.47101e-014 -1.59028e-015 -13.5936 -0.307105 178.917 -33.7545 -0.577351 0.501973 0.82378 -7.09111 -2.23364 90 -3.18055e-015 -6.36111e-015 
32.3825 89.0637 43.9688 -84.9758 54.0218 173.628 1.284 0.309714 0.779683 2.56371 0.637311 1.55242 2.56371 0.637301 1.55241 -7.67015 -9.38072 -14.7591 52.7803 -6.32571 25.0653 -176.307 -10.035 -97.39 -21.5796 3.72253 85.5978 -23.8478 2.38347 -15.2107 12.0842 -83.7523 14.5755 -176.282 -12.5698 70.9501 -11.5215 -3.9636 -78.047 -29.9557 -4.2946 17.793 45.7344 89.0712 -45.7639 -10.8316 -5.1272 179.494 -30.276 1.0628 -1.082 3.13835 18.4355 2.2615 90 1.39149e-014 2.54444e-014 -13.6699 -1.65621 179.666 -34.4083 -0.591135 0.454229 1.29762 -10.2335 -2.72107 90 -7.95139e-015 -6.36111e-015 
31.4721 89.0378 44.7577 -84.443 54.875 171.803 1.30654 -0.0309098 1.00432 2.61344 -0.0383638 2.00924 2.61343 -0.0383765 2.00923 -7.72014 -9.54873 -14.2668 53.0986 -6.07941 25.8406 -176.25 -10.1994 -96.9897 -23.9895 4.42979 85.8574 -24.7701 2.53001 -15.6645 22.0211 -86.085 24.8066 -176.179 -12.7149 71.451 -10.5334 -4.12452 -78.5355 -30.3478 -4.41091 18.0128 29.9587 88.66 -29.9905 -10.2257 -6.33762 -179.645 -30.9649 1.06564 -1.14411 2.54471 9.46989 1.77675 90 -3.97569e-015 3.18055e-015 -13.4408 -3.4566 -179 -34.317 -0.612705 0.417347 1.11171 -13.052 -3.11065 90 -3.18055e-015 3.18055e-015 
30.6101 88.739 45.3073 -84.2211 55.9193 170.919 1.32471 -0.305053 1.06514 2.65492 -0.584843 2.13725 2.65491 -0.584853 2.13724 -7.28039 -10.2262 -14.0388 52.2926 -6.59382 27.4476 -176.796 -10.7733 -96.8606 -24.5905 4.54686 85.752 -25.1198 2.57368 -15.8424 16.2913 -85.4271 18.9887 -176.727 -13.2971 71.6308 -9.88449 -4.5166 -79.3314 -31.0229 -4.62413 18.3993 139.295 88.8997 -139.315 -10.0705 -7.23359 -178.84 -31.4763 1.05923 -1.17043 3.80107 6.60408 1.45826 90 7.95139e-015 -0 -13.7666 -5.93913 -178.94 -35.1467 -0.565302 0.344055 3.59408 -17.3471 -3.09408 90 -3.18055e-015 -0 
29.7991 88.6535 45.7345 -83.4423 58.1579 170.967 1.35086 -0.38995 0.73196 2.7067 -0.762004 1.4731 2.7067 -0.762024 1.47308 -6.32464 -10.768 -13.6861 51.4369 -6.49028 29.2582 -177.795 -11.1077 -96.6999 -25.5787 5.21329 85.0879 -25.3446 2.59753 -15.8992 22.7129 -86.5825 25.6244 -177.732 -13.6494 71.8372 -7.84548 -4.30761 -80.8717 -31.5042 -4.76751 18.6665 28.7805 88.5742 -28.7704 -9.53199 -5.44142 -178.567 -31.0587 1.05483 -1.16823 3.96255 6.43895 1.44423 90 2.70347e-014 1.90833e-014 -14.6806 -6.8718 179.626 -36.78 -0.462759 0.286492 7.14632 -20.6304 -2.34261 90 2.38542e-015 -3.18055e-015 
29.0314 88.6354 46.098 -83.2495 60.5631 171.503 1.36044 -0.399637 0.421012 2.72389 -0.788655 0.85157 2.72388 -0.788658 0.851563 -6.74034 -10.9148 -13.9308 52.1775 -6.19323 30.2667 -177.424 -11.3533 -96.7573 -25.7283 5.21376 83.6289 -24.4579 2.42777 -15.3859 21.687 -86.5473 24.558 -177.418 -13.9411 71.6744 -5.55497 -3.59204 -82.4632 -30.9167 -4.61412 18.3833 11.8925 86.5996 -11.8743 -9.03068 -3.84426 -178.356 -29.9904 1.05642 -1.18279 3.64417 6.4852 1.46675 90 8.74653e-015 2.22639e-014 -16.6285 -7.21186 178.013 -38.8451 -0.361214 0.228401 8.37116 -22.6052 -1.92912 90 -2.06736e-014 3.18055e-015 
28.3893 88.7513 46.414 -83.4165 62.6014 172.218 1.27117 -0.436258 0.174008 2.54375 -0.868064 0.35783 2.54375 -0.868055 0.357819 -6.70018 -10.9339 -14.1177 52.6612 -6.17926 30.4032 -177.471 -11.3734 -96.8374 -24.3641 5.30034 82.3424 -23.3277 2.23396 -14.7484 15.0791 -84.9948 17.5924 -177.527 -13.9515 71.4887 -3.46919 -3.63476 -84.2864 -30.227 -4.43627 18.0548 14.0252 86.9736 -14.0672 -8.36326 -3.17504 -178.475 -28.7138 1.05841 -1.23127 3.23372 4.92083 1.31246 90 5.56597e-015 9.54166e-015 -17.3742 -7.53617 176.075 -39.4768 -0.274185 0.285872 11.2402 -14.897 -1.76755 90 -1.27222e-014 -1.90833e-014 
